<svg width="60" height="60" viewBox="0 0 60 60" fill="none" xmlns="http://www.w3.org/2000/svg">
<path d="M30.063 5.25C32.5941 5.25742 33.8788 5.27227 34.988 5.30692L35.4245 5.32425C35.9285 5.34405 36.4257 5.3688 37.0264 5.3985C39.4203 5.52224 41.0537 5.93803 42.4869 6.54934C43.9718 7.17798 45.2228 8.02936 46.4737 9.40295C47.6182 10.6398 48.5035 12.1365 49.0678 13.7885C49.6235 15.3651 50.0015 17.1619 50.114 19.7977C50.141 20.456 50.1635 21.003 50.1815 21.5599L50.195 22.04C50.2288 23.2577 50.2423 24.6709 50.2468 27.4552L50.249 29.3015V32.5436C50.2545 34.3489 50.2372 36.1541 50.1973 37.9588L50.1838 38.4389C50.1658 38.9958 50.1433 39.5428 50.1163 40.2011C50.0038 42.8369 49.6213 44.6312 49.0678 46.2103C48.5035 47.8623 47.6182 49.359 46.4737 50.5959C45.3494 51.8548 43.9888 52.8287 42.4869 53.4495C41.0537 54.0608 39.4203 54.4766 37.0264 54.6003L35.4245 54.6746L34.988 54.6894C33.8788 54.7241 32.5941 54.7414 30.063 54.7463L28.3846 54.7488H25.4395C23.7977 54.7552 22.1559 54.7362 20.5145 54.6919L20.078 54.677C19.5439 54.6548 19.0099 54.6292 18.4761 54.6003C16.0822 54.4766 14.4488 54.0608 13.0134 53.4495C11.5123 52.8284 10.1525 51.8545 9.02884 50.5959C7.88352 49.3593 6.99744 47.8626 6.43247 46.2103C5.87675 44.6337 5.49877 42.8369 5.38627 40.2011L5.31878 38.4389L5.30753 37.9588C5.26605 36.1541 5.2473 34.3489 5.25128 32.5436V27.4552C5.24505 25.6499 5.26155 23.8447 5.30078 22.04L5.31653 21.5599C5.33453 21.003 5.35702 20.456 5.38402 19.7977C5.49652 17.1619 5.8745 15.3676 6.43022 13.7885C6.9965 12.1358 7.88415 10.639 9.03109 9.40295C10.1541 8.14456 11.5131 7.17074 13.0134 6.54934C14.4488 5.93803 16.08 5.52224 18.4761 5.3985C19.0746 5.3688 19.5741 5.34405 20.078 5.32425L20.5145 5.3094C22.1551 5.26543 23.7962 5.24645 25.4373 5.25247L30.063 5.25ZM27.7501 17.6247C24.7666 17.6247 21.9053 18.9285 19.7956 21.2492C17.6859 23.5699 16.5007 26.7174 16.5007 29.9994C16.5007 33.2814 17.6859 36.4289 19.7956 38.7496C21.9053 41.0703 24.7666 42.3741 27.7501 42.3741C30.7337 42.3741 33.595 41.0703 35.7047 38.7496C37.8144 36.4289 38.9996 33.2814 38.9996 29.9994C38.9996 26.7174 37.8144 23.5699 35.7047 21.2492C33.595 18.9285 30.7337 17.6247 27.7501 17.6247ZM27.7501 22.5746C28.6365 22.5744 29.5142 22.7663 30.3332 23.1393C31.1522 23.5123 31.8963 24.059 32.5232 24.7484C33.1501 25.4377 33.6474 26.2561 33.9867 27.1569C34.326 28.0577 34.5008 29.0231 34.5009 29.9982C34.5011 30.9732 34.3266 31.9387 33.9876 32.8396C33.6485 33.7405 33.1515 34.5591 32.5248 35.2487C31.8981 35.9382 31.1541 36.4853 30.3353 36.8586C29.5164 37.2318 28.6388 37.4241 27.7524 37.4242C25.9623 37.4242 24.2455 36.642 22.9797 35.2495C21.7139 33.8571 21.0027 31.9686 21.0027 29.9994C21.0027 28.0302 21.7139 26.1417 22.9797 24.7493C24.2455 23.3568 25.9623 22.5746 27.7524 22.5746M39.5643 13.9123C38.8184 13.9123 38.1031 14.2382 37.5757 14.8184C37.0482 15.3986 36.7519 16.1855 36.7519 17.006C36.7519 17.8265 37.0482 18.6133 37.5757 19.1935C38.1031 19.7737 38.8184 20.0996 39.5643 20.0996C40.3102 20.0996 41.0255 19.7737 41.5529 19.1935C42.0804 18.6133 42.3767 17.8265 42.3767 17.006C42.3767 16.1855 42.0804 15.3986 41.5529 14.8184C41.0255 14.2382 40.3102 13.9123 39.5643 13.9123Z" fill="#5C4D34"/>
</svg>
