<svg width="60" height="60" viewBox="0 0 60 60" fill="none" xmlns="http://www.w3.org/2000/svg">
<path d="M51.175 4.99998H8.82499C8.34894 4.99337 7.87625 5.0806 7.43391 5.25669C6.99157 5.43278 6.58825 5.69428 6.24699 6.02626C5.90572 6.35824 5.6332 6.75419 5.44497 7.19151C5.25675 7.62882 5.15651 8.09893 5.14999 8.57498V51.425C5.15651 51.901 5.25675 52.3711 5.44497 52.8085C5.6332 53.2458 5.90572 53.6417 6.24699 53.9737C6.58825 54.3057 6.99157 54.5672 7.43391 54.7433C7.87625 54.9194 8.34894 55.0066 8.82499 55H51.175C51.651 55.0066 52.1237 54.9194 52.5661 54.7433C53.0084 54.5672 53.4117 54.3057 53.753 53.9737C54.0943 53.6417 54.3668 53.2458 54.555 52.8085C54.7432 52.3711 54.8435 51.901 54.85 51.425V8.57498C54.8435 8.09893 54.7432 7.62882 54.555 7.19151C54.3668 6.75419 54.0943 6.35824 53.753 6.02626C53.4117 5.69428 53.0084 5.43278 52.5661 5.25669C52.1237 5.0806 51.651 4.99337 51.175 4.99998ZM20.225 46.85H12.725V24.35H20.225V46.85ZM16.475 21.2C15.4406 21.2 14.4487 20.7891 13.7173 20.0577C12.9859 19.3263 12.575 18.3343 12.575 17.3C12.575 16.2656 12.9859 15.2737 13.7173 14.5423C14.4487 13.8109 15.4406 13.4 16.475 13.4C17.0242 13.3377 17.5804 13.3921 18.1072 13.5597C18.6339 13.7273 19.1193 14.0042 19.5316 14.3724C19.9439 14.7406 20.2738 15.1917 20.4997 15.6962C20.7255 16.2007 20.8423 16.7472 20.8423 17.3C20.8423 17.8527 20.7255 18.3993 20.4997 18.9038C20.2738 19.4083 19.9439 19.8594 19.5316 20.2276C19.1193 20.5958 18.6339 20.8727 18.1072 21.0403C17.5804 21.2078 17.0242 21.2623 16.475 21.2ZM47.275 46.85H39.775V34.775C39.775 31.75 38.7 29.775 35.975 29.775C35.1317 29.7812 34.3105 30.0457 33.6221 30.5329C32.9337 31.0201 32.4112 31.7067 32.125 32.5C31.9294 33.0876 31.8446 33.7064 31.875 34.325V46.825H24.375V24.325H31.875V27.5C32.5563 26.3177 33.5473 25.3438 34.7411 24.683C35.9349 24.0222 37.2864 23.6996 38.65 23.75C43.65 23.75 47.275 26.975 47.275 33.9V46.85Z" fill="#5C4D34"/>
</svg>
