<svg width="38" height="25" viewBox="0 0 38 25" fill="none" xmlns="http://www.w3.org/2000/svg">
<path d="M2.08334 25C1.49306 25 0.998618 24.8 0.600007 24.4C0.201396 24 0.00139607 23.5056 7.1839e-06 22.9167C-0.0013817 22.3278 0.198619 21.8333 0.600007 21.4333C1.0014 21.0333 1.49584 20.8333 2.08334 20.8333H35.4167C36.007 20.8333 36.5021 21.0333 36.9021 21.4333C37.3021 21.8333 37.5014 22.3278 37.5 22.9167C37.4986 23.5056 37.2986 24.0007 36.9 24.4021C36.5014 24.8035 36.007 25.0028 35.4167 25H2.08334ZM2.08334 14.5833C1.49306 14.5833 0.998618 14.3833 0.600007 13.9833C0.201396 13.5833 0.00139607 13.0889 7.1839e-06 12.5C-0.0013817 11.9111 0.198619 11.4167 0.600007 11.0167C1.0014 10.6167 1.49584 10.4167 2.08334 10.4167H35.4167C36.007 10.4167 36.5021 10.6167 36.9021 11.0167C37.3021 11.4167 37.5014 11.9111 37.5 12.5C37.4986 13.0889 37.2986 13.584 36.9 13.9854C36.5014 14.3868 36.007 14.5861 35.4167 14.5833H2.08334ZM2.08334 4.16667C1.49306 4.16667 0.998618 3.96667 0.600007 3.56667C0.201396 3.16667 0.00139607 2.67222 7.1839e-06 2.08333C-0.0013817 1.49444 0.198619 1 0.600007 0.6C1.0014 0.2 1.49584 0 2.08334 0H35.4167C36.007 0 36.5021 0.2 36.9021 0.6C37.3021 1 37.5014 1.49444 37.5 2.08333C37.4986 2.67222 37.2986 3.16736 36.9 3.56875C36.5014 3.97014 36.007 4.16944 35.4167 4.16667H2.08334Z" fill="#5C4D34"/>
</svg>
