<svg width="45" height="50" viewBox="0 0 45 50" fill="none" xmlns="http://www.w3.org/2000/svg">
<path d="M24.813 0C27.3441 0.00742482 28.6288 0.0222745 29.738 0.0569236L30.1745 0.0742481C30.6785 0.0940477 31.1757 0.118797 31.7764 0.148496C34.1703 0.272243 35.8037 0.688034 37.2369 1.29934C38.7218 1.92798 39.9728 2.77936 41.2237 4.15295C42.3682 5.38976 43.2535 6.88645 43.8178 8.53854C44.3735 10.1151 44.7515 11.9119 44.864 14.5477C44.891 15.206 44.9135 15.753 44.9315 16.3099L44.945 16.79C44.9788 18.0077 44.9923 19.4209 44.9968 22.2052L44.999 24.0515V27.2936C45.0045 29.0989 44.9872 30.9041 44.9473 32.7088L44.9338 33.1889C44.9158 33.7458 44.8933 34.2928 44.8663 34.9511C44.7538 37.5869 44.3713 39.3812 43.8178 40.9603C43.2535 42.6123 42.3682 44.109 41.2237 45.3459C40.0994 46.6048 38.7388 47.5787 37.2369 48.1995C35.8037 48.8108 34.1703 49.2266 31.7764 49.3503L30.1745 49.4246L29.738 49.4394C28.6288 49.4741 27.3441 49.4914 24.813 49.4963L23.1346 49.4988H20.1895C18.5477 49.5052 16.9059 49.4862 15.2645 49.4419L14.828 49.427C14.2939 49.4048 13.7599 49.3792 13.2261 49.3503C10.8322 49.2266 9.19882 48.8108 7.76339 48.1995C6.26233 47.5784 4.90253 46.6045 3.77884 45.3459C2.63352 44.1093 1.74744 42.6126 1.18247 40.9603C0.626748 39.3837 0.248767 37.5869 0.136273 34.9511L0.0687763 33.1889L0.0575271 32.7088C0.0160528 30.9041 -0.00269828 29.0989 0.00127973 27.2936V22.2052C-0.00494772 20.3999 0.0115532 18.5947 0.0507774 16.79L0.0665265 16.3099C0.0845256 15.753 0.107024 15.206 0.134023 14.5477C0.246517 11.9119 0.624498 10.1176 1.18022 8.53854C1.7465 6.88577 2.63415 5.38902 3.78109 4.15295C4.90413 2.89456 6.26314 1.92074 7.76339 1.29934C9.19882 0.688034 10.83 0.272243 13.2261 0.148496C13.8246 0.118797 14.3241 0.0940477 14.828 0.0742481L15.2645 0.0593984C16.9051 0.0154256 18.5462 -0.00355079 20.1873 0.00247476L24.813 0ZM22.5001 12.3747C19.5166 12.3747 16.6553 13.6785 14.5456 15.9992C12.4359 18.3199 11.2507 21.4674 11.2507 24.7494C11.2507 28.0314 12.4359 31.1789 14.5456 33.4996C16.6553 35.8203 19.5166 37.1241 22.5001 37.1241C25.4837 37.1241 28.345 35.8203 30.4547 33.4996C32.5644 31.1789 33.7496 28.0314 33.7496 24.7494C33.7496 21.4674 32.5644 18.3199 30.4547 15.9992C28.345 13.6785 25.4837 12.3747 22.5001 12.3747ZM22.5001 17.3246C23.3865 17.3244 24.2642 17.5163 25.0832 17.8893C25.9022 18.2623 26.6463 18.809 27.2732 19.4984C27.9001 20.1877 28.3974 21.0061 28.7367 21.9069C29.076 22.8077 29.2508 23.7731 29.2509 24.7482C29.2511 25.7232 29.0766 26.6887 28.7376 27.5896C28.3985 28.4905 27.9015 29.3091 27.2748 29.9987C26.6481 30.6882 25.9041 31.2353 25.0853 31.6086C24.2664 31.9818 23.3888 32.1741 22.5024 32.1742C20.7123 32.1742 18.9955 31.392 17.7297 29.9995C16.4639 28.6071 15.7527 26.7186 15.7527 24.7494C15.7527 22.7802 16.4639 20.8917 17.7297 19.4993C18.9955 18.1068 20.7123 17.3246 22.5024 17.3246M34.3143 8.66229C33.5684 8.66229 32.8531 8.98823 32.3257 9.56841C31.7982 10.1486 31.5019 10.9355 31.5019 11.756C31.5019 12.5765 31.7982 13.3633 32.3257 13.9435C32.8531 14.5237 33.5684 14.8496 34.3143 14.8496C35.0602 14.8496 35.7755 14.5237 36.3029 13.9435C36.8304 13.3633 37.1267 12.5765 37.1267 11.756C37.1267 10.9355 36.8304 10.1486 36.3029 9.56841C35.7755 8.98823 35.0602 8.66229 34.3143 8.66229Z" fill="#C5BAA7"/>
</svg>
