<svg width="50" height="50" viewBox="0 0 50 50" fill="none" xmlns="http://www.w3.org/2000/svg">
<path d="M46.025 0.000349577H3.675C3.19895 -0.00626198 2.72625 0.0809683 2.28391 0.257059C1.84158 0.43315 1.43826 0.694651 1.09699 1.02663C0.755729 1.35861 0.483204 1.75456 0.29498 2.19187C0.106756 2.62919 0.00652098 3.09929 0 3.57535V46.4254C0.00652098 46.9014 0.106756 47.3715 0.29498 47.8088C0.483204 48.2461 0.755729 48.6421 1.09699 48.9741C1.43826 49.306 1.84158 49.5675 2.28391 49.7436C2.72625 49.9197 3.19895 50.007 3.675 50.0004H46.025C46.5011 50.007 46.9737 49.9197 47.4161 49.7436C47.8584 49.5675 48.2617 49.306 48.603 48.9741C48.9443 48.6421 49.2168 48.2461 49.405 47.8088C49.5932 47.3715 49.6935 46.9014 49.7 46.4254V3.57535C49.6935 3.09929 49.5932 2.62919 49.405 2.19187C49.2168 1.75456 48.9443 1.35861 48.603 1.02663C48.2617 0.694651 47.8584 0.43315 47.4161 0.257059C46.9737 0.0809683 46.5011 -0.00626198 46.025 0.000349577ZM15.075 41.8503H7.575V19.3503H15.075V41.8503ZM11.325 16.2003C10.2907 16.2003 9.29868 15.7895 8.56728 15.0581C7.83589 14.3267 7.425 13.3347 7.425 12.3004C7.425 11.266 7.83589 10.274 8.56728 9.54263C9.29868 8.81124 10.2907 8.40035 11.325 8.40035C11.8742 8.33806 12.4304 8.39249 12.9572 8.56006C13.4839 8.72763 13.9693 9.00457 14.3816 9.37276C14.7939 9.74093 15.1238 10.192 15.3497 10.6966C15.5755 11.2011 15.6923 11.7476 15.6923 12.3004C15.6923 12.8531 15.5755 13.3996 15.3497 13.9041C15.1238 14.4087 14.7939 14.8598 14.3816 15.2279C13.9693 15.5961 13.4839 15.8731 12.9572 16.0406C12.4304 16.2082 11.8742 16.2626 11.325 16.2003ZM42.125 41.8503H34.625V29.7754C34.625 26.7504 33.55 24.7754 30.825 24.7754C29.9817 24.7815 29.1605 25.0461 28.4721 25.5333C27.7837 26.0205 27.2612 26.707 26.975 27.5004C26.7794 28.088 26.6946 28.7068 26.725 29.3254V41.8253H19.225V19.3253H26.725V22.5004C27.4063 21.3181 28.3973 20.3441 29.5911 19.6834C30.7849 19.0226 32.1364 18.7 33.5 18.7504C38.5 18.7504 42.125 21.9754 42.125 28.9004V41.8503Z" fill="#C5BAA7"/>
</svg>
